<svg id="visual" viewBox="0 0 1400 160" width="1400" height="160" xmlns="http://www.w3.org/2000/svg" xmlns:xlink="http://www.w3.org/1999/xlink" version="1.1"><rect x="0" y="0" width="1400" height="160" fill="#f2be94"></rect><path d="M0 78L38.8 79.8C77.7 81.7 155.3 85.3 233.2 84C311 82.7 389 76.3 466.8 79.8C544.7 83.3 622.3 96.7 700 102.2C777.7 107.7 855.3 105.3 933.2 99.7C1011 94 1089 85 1166.8 77.8C1244.7 70.7 1322.3 65.3 1361.2 62.7L1400 60L1400 161L1361.2 161C1322.3 161 1244.7 161 1166.8 161C1089 161 1011 161 933.2 161C855.3 161 777.7 161 700 161C622.3 161 544.7 161 466.8 161C389 161 311 161 233.2 161C155.3 161 77.7 161 38.8 161L0 161Z" fill="#669def" stroke-linecap="round" stroke-linejoin="miter"></path></svg>